<svg xmlns="http://www.w3.org/2000/svg" width="88" height="88" viewBox="0 0 88 88" fill="none">
<rect width="88" height="88" rx="44" fill="#F9FAFB"/>
<path d="M50.2581 47.7583H48.9415L48.4748 47.3083C50.1081 45.4083 51.0915 42.9417 51.0915 40.2583C51.0915 34.275 46.2415 29.425 40.2581 29.425C34.2748 29.425 29.4248 34.275 29.4248 40.2583C29.4248 46.2417 34.2748 51.0917 40.2581 51.0917C42.9415 51.0917 45.4081 50.1083 47.3081 48.475L47.7581 48.9417V50.2583L56.0915 58.575L58.5748 56.0917L50.2581 47.7583ZM40.2581 47.7583C36.1081 47.7583 32.7581 44.4083 32.7581 40.2583C32.7581 36.1083 36.1081 32.7583 40.2581 32.7583C44.4081 32.7583 47.7581 36.1083 47.7581 40.2583C47.7581 44.4083 44.4081 47.7583 40.2581 47.7583Z" fill="#9CA3B0"/>
</svg>