<svg width="88" height="88" viewBox="0 0 88 88" fill="none" xmlns="http://www.w3.org/2000/svg">
<rect width="88" height="88" rx="44" fill="#F9FAFB"/>
<path d="M31.0834 41.5C29.7 41.5 28.5834 42.6167 28.5834 44C28.5834 45.3833 29.7 46.5 31.0834 46.5C32.4667 46.5 33.5834 45.3833 33.5834 44C33.5834 42.6167 32.4667 41.5 31.0834 41.5ZM31.0834 31.5C29.7 31.5 28.5834 32.6167 28.5834 34C28.5834 35.3833 29.7 36.5 31.0834 36.5C32.4667 36.5 33.5834 35.3833 33.5834 34C33.5834 32.6167 32.4667 31.5 31.0834 31.5ZM31.0834 51.5C29.7 51.5 28.5834 52.6333 28.5834 54C28.5834 55.3667 29.7167 56.5 31.0834 56.5C32.45 56.5 33.5834 55.3667 33.5834 54C33.5834 52.6333 32.4667 51.5 31.0834 51.5ZM36.0834 55.6667H59.4167V52.3333H36.0834V55.6667ZM36.0834 45.6667H59.4167V42.3333H36.0834V45.6667ZM36.0834 32.3333V35.6667H59.4167V32.3333H36.0834Z" fill="#9CA3B0"/>
</svg>
